Coordinates
version=1
nRows=19
nColumns=34
inDegrees=yes

Units are S.I. units (second, meters, Newtons, ...)
If the header above contains a line with 'inDegrees', this indicates whether rotational values are in degrees (yes) or radians (no).

endheader
time	pelvis_tilt	pelvis_list	pelvis_rotation	pelvis_tx	pelvis_ty	pelvis_tz	hip_flexion_r	hip_adduction_r	hip_rotation_r	knee_angle_r	ankle_angle_r	subtalar_angle_r	mtp_angle_r	hip_flexion_l	hip_adduction_l	hip_rotation_l	knee_angle_l	ankle_angle_l	subtalar_angle_l	mtp_angle_l	lumbar_extension	lumbar_bending	lumbar_rotation	arm_flex_r	arm_add_r	arm_rot_r	elbow_flex_r	pro_sup_r	arm_flex_l	arm_add_l	arm_rot_l	elbow_flex_l	pro_sup_l
      0.00000000	     -2.58749726	     -3.61827266	   -175.35346226	      0.15510526	      1.07312777	      0.09905892	     11.85866578	     -2.86780982	     -5.41883237	      7.63454681	     -5.69659798	      1.62773910	      0.00000000	     -5.87064602	      2.28400261	     -1.61208052	     19.61649754	      3.24400704	     -7.35575445	      0.00000000	    -19.90162526	     -1.09755827	     -6.28568416	      5.82763592	     -4.77574293	      6.83128536	     27.77907287	     76.80345029	      6.90753117	    -10.23759640	     13.28531071	     35.66840253	     79.71418680
      0.00833330	     -0.64443281	     -3.76442267	   -174.99075859	      0.15252488	      1.06727285	      0.10068341	     13.36498946	     -2.90489280	     -2.42319469	      6.42467615	     -6.11291540	      0.67414349	      0.00000000	     -5.38712438	      2.40016582	     -1.86432818	     17.81109483	      2.22588445	     -5.43581593	      0.00000000	    -16.19468813	     -1.90871320	     -5.93514707	      4.20164242	     -4.16898457	      4.43847989	     28.12948372	     77.04352183	      5.56370272	     -9.85949466	     12.07489136	     36.68122960	     79.72660191
      0.01666670	      0.26397393	     -3.71508983	   -175.03421839	      0.15139846	      1.06708785	      0.10176539	     14.33425420	     -3.36608906	     -1.80372561	      6.65739710	     -6.25390363	      1.22388311	      0.00000000	     -4.20895021	      2.29693173	     -2.71123623	     19.08555916	      2.20298042	     -4.55270935	      0.00000000	    -15.30134042	     -1.90028367	     -5.84720815	      3.58269751	     -3.47948854	     -0.33032422	     28.88804214	     78.20519715	      5.05052253	     -8.67877775	      8.05415994	     36.92128653	     80.38564454
      0.02500000	      1.11714536	     -3.64608188	   -175.06416752	      0.15015908	      1.06513849	      0.10193089	     15.03674265	     -3.49626418	     -1.57603209	      6.15398177	     -6.02310852	      2.14079220	      0.00000000	     -2.99219943	      2.29234433	     -2.58559653	     19.74862205	      1.41412137	     -5.05703664	      0.00000000	    -13.83199036	     -1.99337705	     -5.80775445	      3.01912797	     -2.89483095	     -2.91839668	     28.80686950	     80.12567427	      4.18020527	     -8.21474559	      5.89532261	     37.74006044	     81.88928853
      0.03333330	      1.17807467	     -3.40771872	   -175.05839686	      0.14964618	      1.06433085	      0.10193037	     15.01127157	     -3.25648213	     -1.39595560	      6.06846905	     -5.85453029	      2.20552523	      0.00000000	     -2.60464681	      1.99727179	     -2.59491716	     20.59829984	      1.75354676	     -5.36950941	      0.00000000	    -13.90452588	     -1.78116263	     -5.70885789	      3.00073433	     -2.80203163	     -3.00383954	     28.79392350	     80.27967275	      4.25356812	     -8.03904441	      5.79970409	     37.91564272	     82.00827953
      0.04166670	      1.05142990	     -3.40184818	   -175.10756576	      0.14923889	      1.06364303	      0.10191560	     14.90664754	     -3.18346707	     -1.35093961	      6.23193532	     -5.83935827	      2.25590406	      0.00000000	     -2.54938898	      2.00224680	     -2.57186981	     20.98620572	      1.80929223	     -5.45980257	      0.00000000	    -13.72153255	     -1.83686513	     -5.72228354	      2.93864203	     -2.80727719	     -3.03226054	     28.79409618	     80.31085079	      4.20884484	     -7.95872772	      5.79251852	     37.96810802	     82.03533817
      0.05000000	      2.24776194	     -3.34688495	   -175.03934063	      0.14882418	      1.06091118	      0.10237217	     16.40241045	     -3.26270885	     -1.47555188	      6.78588083	     -5.20070148	      2.92155693	      0.00000000	     -0.91560865	      2.13777840	     -2.24235678	     21.84192739	      2.28115417	     -6.68553216	      0.00000000	    -12.21074330	     -1.88138012	     -5.98660185	      2.49415025	     -2.59346506	     -4.33352472	     29.35505454	     82.10754106	      3.16230171	     -7.77689475	      4.73588900	     39.11218803	     83.55590801
      0.05833330	      2.26780414	     -3.34942249	   -175.03304958	      0.14852458	      1.06025859	      0.10237169	     16.36976920	     -3.22761968	     -1.47859102	      6.81074457	     -5.20276236	      2.92213368	      0.00000000	     -0.91379484	      2.16238390	     -2.24892126	     21.84931761	      2.28664409	     -6.68946643	      0.00000000	    -12.20629964	     -1.88448007	     -5.98898697	      2.48826185	     -2.59554646	     -4.33431218	     29.35298406	     82.10940869	      3.16416766	     -7.77558978	      4.73569448	     39.11462928	     83.55755221
      0.06666670	      2.19010151	     -3.27758174	   -175.15229086	      0.14824126	      1.05966479	      0.10240516	     16.37137569	     -3.11988965	     -1.54233111	      7.04470421	     -5.09503361	      2.93796318	      0.00000000	     -0.96490957	      2.11582328	     -2.34777508	     22.04583558	      2.91744544	     -6.98947336	      0.00000000	    -11.96274607	     -1.87215944	     -5.87908289	      2.24815952	     -2.68253288	     -4.36255211	     29.30874752	     82.27072162	      2.99281601	     -7.71034772	      4.77674607	     39.26125351	     83.71230207
      0.07500000	      2.19338359	     -3.26788249	   -175.14409188	      0.14828986	      1.05938962	      0.10255714	     16.36442357	     -3.10015120	     -1.54155416	      7.05249102	     -5.09584080	      2.94062067	      0.00000000	     -0.96575436	      2.14350694	     -2.35279084	     22.04538122	      2.92185850	     -6.98937178	      0.00000000	    -11.95484313	     -1.87249367	     -5.87911101	      2.24901855	     -2.68494972	     -4.36303883	     29.31013719	     82.27268202	      2.99373962	     -7.70875436	      4.77790759	     39.26447798	     83.71443668
      0.08333330	      2.77849061	     -3.22407436	   -175.36407226	      0.14786159	      1.05831189	      0.10245107	     17.11149480	     -3.05628399	     -1.49128379	      7.24587932	     -4.82739340	      3.52416656	      0.00000000	     -0.40042322	      2.14475862	     -2.77396045	     22.03620327	      3.64303003	     -6.48841405	      0.00000000	    -10.97106570	     -1.87071637	     -5.54180004	      1.81721630	     -2.88680948	     -4.33530675	     29.59299084	     83.20653877	      2.56662145	     -7.77580220	      5.29740289	     39.97012824	     84.77153005
      0.09166670	      2.76748341	     -3.22149588	   -175.35966537	      0.14806489	      1.05832965	      0.10248249	     17.11639321	     -3.04046195	     -1.49300269	      7.24490698	     -4.82840980	      3.52414810	      0.00000000	     -0.39795210	      2.16478816	     -2.77449409	     22.03142077	      3.64499898	     -6.48734942	      0.00000000	    -10.96861018	     -1.87076086	     -5.54224368	      1.81791013	     -2.88766181	     -4.33561879	     29.59357514	     83.20789502	      2.56475213	     -7.77471398	      5.29842322	     39.96937612	     84.77324555
      0.10000000	      2.79984311	     -3.22581173	   -175.48413830	      0.14803462	      1.05839755	      0.10241401	     17.18511879	     -3.00853592	     -1.50710843	      7.23288337	     -4.85534288	      3.53612648	      0.00000000	     -0.46523619	      2.23336824	     -2.68568640	     21.83398625	      3.75083368	     -6.46666457	      0.00000000	    -10.91159260	     -1.84607028	     -5.57181829	      1.85777803	     -2.91722636	     -4.34341646	     29.61913306	     83.24710995	      2.52907657	     -7.71801467	      5.34329627	     39.95789136	     84.82818265
      0.10833330	      2.82759357	     -3.23106655	   -175.42902388	      0.14798653	      1.05865691	      0.10248815	     17.21602360	     -3.02022975	     -1.45946817	      7.23496894	     -4.88068748	      3.58402831	      0.00000000	     -0.48930622	      2.24289265	     -2.67888289	     21.70004382	      3.81638473	     -6.45865461	      0.00000000	    -10.86945497	     -1.82224441	     -5.56117019	      1.87675993	     -2.92057273	     -4.34253886	     29.63635825	     83.28243502	      2.46870259	     -7.69500227	      5.38085253	     39.93698464	     84.87905501
      0.11666670	      2.82357298	     -3.23475030	   -175.42949004	      0.14789756	      1.05893633	      0.10247425	     17.22270474	     -3.01655882	     -1.45959859	      7.23162982	     -4.88076314	      3.58447425	      0.00000000	     -0.49013766	      2.24348019	     -2.67826618	     21.69910135	      3.81693716	     -6.45819065	      0.00000000	    -10.86884547	     -1.82193475	     -5.56217969	      1.87622681	     -2.92077314	     -4.34255925	     29.63633084	     83.28287635	      2.46881434	     -7.69424826	      5.38148361	     39.93707010	     84.87975372
      0.12500000	      2.82080018	     -3.23937288	   -175.43030770	      0.14779442	      1.05923642	      0.10248397	     17.22938716	     -3.01215810	     -1.45975783	      7.22812857	     -4.88106832	      3.58509940	      0.00000000	     -0.49086671	      2.24359991	     -2.67752960	     21.69685188	      3.81761993	     -6.45764097	      0.00000000	    -10.86844109	     -1.82163687	     -5.56359106	      1.87566653	     -2.92080438	     -4.34254426	     29.63630384	     83.28332921	      2.46928415	     -7.69298930	      5.38231043	     39.93732448	     84.88051754
      0.13333330	      3.68834254	     -3.24858849	   -175.48465808	      0.14691808	      1.05855656	      0.10240553	     18.11872133	     -3.07073232	     -1.68911217	      7.13977491	     -4.76909579	      4.21966594	      0.00000000	      0.30938323	      2.31640719	     -2.77394005	     21.52736626	      4.60969610	     -5.58503630	      0.00000000	     -9.52413640	     -1.97061195	     -5.10040625	      1.31348704	     -3.02212952	     -4.30592826	     29.49499936	     86.82385871	      2.64453147	     -7.98933374	      7.59402353	     39.23503502	     90.47903304
      0.14166670	      3.68766319	     -3.25003708	   -175.48506665	      0.14686947	      1.05894494	      0.10243572	     18.12182247	     -3.07074482	     -1.68891199	      7.13897670	     -4.76974828	      4.21980262	      0.00000000	      0.30873021	      2.31533631	     -2.77462958	     21.52699186	      4.60859231	     -5.58503734	      0.00000000	     -9.52444579	     -1.97011214	     -5.10176099	      1.31332493	     -3.02232692	     -4.30617436	     29.49501435	     86.82408662	      2.64565077	     -7.98860566	      7.59397060	     39.23540652	     90.47942143
      0.15000000	      3.68672317	     -3.25068962	   -175.48733674	      0.14686256	      1.05924993	      0.10246373	     18.12482842	     -3.07251473	     -1.68886976	      7.13735412	     -4.77119263	      4.22004896	      0.00000000	      0.30972748	      2.31397062	     -2.77581670	     21.52334318	      4.60664674	     -5.58475896	      0.00000000	     -9.52523561	     -1.96927883	     -5.10495411	      1.31282470	     -3.02246417	     -4.30656553	     29.49493870	     86.82448875	      2.64848851	     -7.98645164	      7.59413165	     39.23647282	     90.48015905
